# xmcd
#
# Track frame offsets: 
#        150
#        9289
#        40687
#        72285
#        83350
#        108012
#        138031
#        177682
#        199682
#
# Disc length: 2941 seconds
#
# Revision: 0
# Processed by: cddbd v1.5.1PL0 Copyright (c) Steve Scherf et al.
# Submitted via: ExactAudioCopy v0.95a5
#
DISCID=630b7b09
DTITLE=Allman Brothers Band - 2005-08-17 London Canada  Disc 1
DYEAR=2005
DGENRE=Rock
TTITLE0=01 Intro
TTITLE1=No One To Run With
TTITLE2=Black Hearted Woman
TTITLE3=Don't Want You No More >
TTITLE4=It's Not My Cross To Bear
TTITLE5=Hot 'Lanta
TTITLE6=Ain't Wastin' Time No More
TTITLE7=Don't Keep Me Wonderin'
TTITLE8=Statesboro Blues
EXTD=
EXTT0=
EXTT1=
EXTT2=
EXTT3=
EXTT4=
EXTT5=
EXTT6=
EXTT7=
EXTT8=
PLAYORDER=
